<svg width="500" height="500" viewBox="0 0 500 500" fill="none" xmlns="http://www.w3.org/2000/svg">
<path d="M171.128 192.395V208.645H220.745V225.183H270.946V241.723H320.274V225.183H336.523V208.645H320.274V192.395H303.442V159.314H286.904V142.485L253.826 142.775V159.314H221.036V175.854H204.207V192.395H171.128Z" fill="#BD00B6"/>
<path d="M105.259 274.802H138.338H220.745H303.442V258.552H320.274V241.723H270.946V225.183H220.745V208.645H171.128H138.338V225.183H105.259V241.723H88.4277V258.552H105.259V274.802Z" fill="#751971"/>
<path d="M39.3906 324.711H171.417V307.88H154.879V291.342H138.338H55.64V307.88H39.3906V324.711Z" fill="#862081"/>
<path d="M138.338 274.802V291.342H154.878V307.88H171.416V324.712V341.25H204.207V357.5H253.826H270.364V341.25L237.285 340.961V324.712H220.745V274.802H138.338Z" fill="#BD00B6"/>
<path fill-rule="evenodd" clip-rule="evenodd" d="M303.442 374.041V357.5H320.274V374.041H303.442ZM320.274 374.041H337.103V390.579H320.274V374.041Z" fill="#862081"/>
<path d="M286.904 374.041V357.5H270.364H253.826V390.579H270.364V374.041H286.904Z" fill="#862081"/>
<path d="M286.904 390.578H270.364V407.119H286.904V390.578Z" fill="#862081"/>
<path d="M336.524 159.313V142.485L353.062 142.775V126.235H336.524H320.274V142.485V159.313H336.524Z" fill="white"/>
<path d="M336.524 142.485V159.314H353.062V142.775L336.524 142.485Z" fill="black"/>
<path d="M402.681 208.645H386.143V175.854H353.062V159.314H336.524H320.274V142.485H286.904V159.314H303.442V192.395H320.274V208.645H336.524V225.183H320.274V241.723V258.552H303.442V274.802H220.745V324.712H237.285V340.961L270.364 341.25V357.499H286.904H303.442H320.274H337.103V340.961H353.062V324.421H369.893V308.171H386.143V291.342H402.681V208.645Z" fill="#EF42FF"/>
<path fill-rule="evenodd" clip-rule="evenodd" d="M253.826 126.235H270.364V109.406H287.195V93.1562H369.602V109.406H386.143V126.235V159.313V175.854H353.061V159.313V142.775V126.235H336.523H320.274V142.485H286.904L253.826 142.775V126.235Z" fill="#862081"/>
<path d="M402.681 126.235H386.143V159.313H419.221V142.485H402.681V126.235Z" fill="#BD00B6"/>
<script xmlns=""/></svg>